<svg width="32" height="32" viewBox="0 0 32 32" fill="none" xmlns="http://www.w3.org/2000/svg">
<path fill-rule="evenodd" clip-rule="evenodd" d="M23.9303 14.7726C23.9303 19.5843 19.95 23.5452 14.9652 23.5452C9.98029 23.5452 6 19.5843 6 14.7726C6 9.96089 9.98029 6 14.9652 6C19.95 6 23.9303 9.96089 23.9303 14.7726ZM21.7794 23.213C19.9082 24.6731 17.5404 25.5452 14.9652 25.5452C8.90927 25.5452 4 20.7222 4 14.7726C4 8.82306 8.90927 4 14.9652 4C21.021 4 25.9303 8.82306 25.9303 14.7726C25.9303 17.5174 24.8854 20.0225 23.1651 21.9248L28.0002 26.675L26.6518 27.9998L21.7794 23.213Z" fill="black"/>
</svg>
